<svg width="24" height="25" viewBox="0 0 24 25" fill="none" xmlns="http://www.w3.org/2000/svg">
<path class="background" d="M11.5532 2.72316C11.8345 2.58266 12.1655 2.58266 12.4468 2.72316L20.4468 6.71877C20.7858 6.88808 21 7.23446 21 7.61339C21 12.9596 18.442 17.9831 14.1185 21.1277L12.5882 22.2407C12.2375 22.4958 11.7625 22.4958 11.4118 22.2407L9.88153 21.1277C5.55797 17.9831 3 12.9596 3 7.61339C3 7.23446 3.21418 6.88808 3.55318 6.71877L11.5532 2.72316Z" fill="#999999"/>
<path d="M9.00961 12.7243C8.66551 12.4471 8.1619 12.5014 7.88476 12.8455C7.60762 13.1896 7.66191 13.6932 8.00601 13.9704L9.00961 12.7243ZM11.267 15.5695L10.7652 16.1926C11.101 16.463 11.5907 16.4187 11.8725 16.0924L11.267 15.5695ZM17.1741 9.95343C17.4629 9.61903 17.4259 9.11385 17.0915 8.82507C16.7571 8.53629 16.252 8.57327 15.9632 8.90766L17.1741 9.95343ZM8.00601 13.9704L10.7652 16.1926L11.7688 14.9465L9.00961 12.7243L8.00601 13.9704ZM11.8725 16.0924L17.1741 9.95343L15.9632 8.90766L10.6615 15.0467L11.8725 16.0924Z" fill="white"/>
</svg>
